<svg width="240" height="32" viewBox="0 0 240 32" fill="none" xmlns="http://www.w3.org/2000/svg">
<g clip-path="url(#clip0_40006353_12480)">
<path d="M164.414 6.32645L157.969 12.1505L159.507 13.6548C159.507 13.6548 164.383 9.3856 164.447 9.33079C164.507 9.3856 169.383 13.6548 169.383 13.6548L170.92 12.1505L164.447 6.29688L164.414 6.32645Z" fill="white"/>
<path d="M198.534 17.5938C195.679 17.5938 193.359 19.6109 193.359 22.0924C193.359 24.5761 195.679 26.5967 198.534 26.5967C201.39 26.5967 203.711 24.5761 203.711 22.0924C203.711 19.6109 201.39 17.5938 198.534 17.5938ZM198.534 24.7051C196.926 24.7051 195.618 23.5318 195.618 22.0924C195.618 20.6558 196.926 19.4882 198.534 19.4882C200.143 19.4882 201.45 20.6558 201.45 22.0924C201.45 23.5318 200.143 24.7051 198.534 24.7051Z" fill="white"/>
<path d="M204.662 6.66406H192.359V8.55422H196.677C196.498 8.71649 192.234 12.5992 192.234 12.5992L193.773 14.1021C193.773 14.1021 198.469 9.95324 198.533 9.89771C198.599 9.95324 203.292 14.1021 203.292 14.1021L204.83 12.5992C204.83 12.5992 200.566 8.71649 200.389 8.55422H204.709V6.66406H204.662Z" fill="white"/>
<path d="M206.353 14.8125H190.668V16.7365H206.402V14.8125H206.353Z" fill="white"/>
<path d="M153.798 6.64062H151.375V24.1908H153.847V6.64062H153.798Z" fill="white"/>
<path d="M139.05 6.91016H139V8.80319H146.515V17.8321H148.962V8.02002C148.962 7.24261 148.611 6.91016 147.783 6.91016H139.05Z" fill="white"/>
<path d="M221.712 6.64062H219.289V24.1908H221.761V6.64062H221.712Z" fill="white"/>
<path d="M206.961 6.91016H206.914V8.80319H214.428V17.8321H216.874V8.02002C216.874 7.24261 216.523 6.91016 215.7 6.91016H206.961Z" fill="white"/>
<path d="M182.601 17.1797H180.249V20.5294H173.586V22.4556H189.317V20.5294H182.653V17.1797H182.601Z" fill="white"/>
<path d="M187.449 6.91016H185.06V9.68514H177.828V6.91016H175.391V15.1299C175.409 15.854 175.814 16.1742 176.617 16.1742L186.286 16.1893C187.071 16.1742 187.474 15.854 187.499 15.1299V6.91016H187.449ZM185.06 14.2624H177.827V11.6143H185.06V14.2624Z" fill="white"/>
<path d="M239.95 14.8105H224.266V16.6993H239.999V14.8105H239.95Z" fill="white"/>
<path d="M226.03 6.66406H225.98V8.55423H235.56V13.3658H238.009V7.64051C237.97 6.95397 237.619 6.66406 236.841 6.66406H226.03Z" fill="white"/>
<path d="M237.102 18.7441H226.894C226.226 18.7441 225.941 19.0102 225.941 19.6442V25.0304C225.941 25.6615 226.226 25.9319 226.894 25.9319H237.102C237.766 25.9319 238.051 25.6615 238.051 25.0304V19.6442C238.051 19.0102 237.766 18.7441 237.102 18.7441ZM235.633 24.0346H228.357V20.6343H235.456H235.633V24.0346Z" fill="white"/>
<path d="M172.261 14.6016H156.578V16.5256H163.245V18.2737H158.504V20.189H167.958V21.1158H159.456C158.789 21.1158 158.504 21.3862 158.504 22.0158V25.0764C158.504 25.7073 158.789 25.9743 159.456 25.9743H170.388V24.0595H160.932V23.0312H169.435C170.106 23.0312 170.388 22.7636 170.388 22.1312V19.1737C170.388 18.5426 170.106 18.2737 169.435 18.2737H165.643V16.5256H172.31V14.6016H172.261Z" fill="white"/>
<path d="M60.5653 26.0814H55.4102V6.5625H60.5653V26.0814Z" fill="white"/>
<path d="M94.424 22.5498V15.1976C94.424 12.4168 92.1156 11.6791 90.8911 11.6733H75.8074V6.57617H70.6566V22.2008C70.6544 22.2599 70.6357 23.6568 71.7178 24.7639C72.5601 25.6248 73.815 26.0598 75.4497 26.0598H90.889C92.1098 26.0598 94.424 25.3235 94.424 22.5498ZM75.8074 15.8892H89.2513V21.8431H75.8074V15.8892Z" fill="white"/>
<path d="M121.579 6.57617H107.415C105.783 6.57617 104.532 7.01031 103.685 7.8721C102.603 8.97763 102.625 10.3752 102.625 10.4315V22.1784C102.625 22.2174 102.693 26.0605 107.403 26.0605H121.584C126.297 26.0605 126.366 22.2174 126.366 22.1813V10.4243C126.366 10.3752 126.391 8.97763 125.304 7.8721C124.466 7.01031 123.211 6.57617 121.579 6.57617ZM121.219 21.8431H107.775V10.7921H121.219V21.8431Z" fill="white"/>
<path d="M0 32H32.0596V0H0V32Z" fill="white"/>
<path d="M19.8008 7.78248V9.68273H23.9821V26.0805H29.1372V4.75L19.8008 7.78248Z" fill="#1D2023"/>
<path d="M38.3384 16.0457L48.4138 6.63672H41.8001L32.0586 16.0457L41.889 25.9825H48.4795L38.3384 16.0457Z" fill="white"/>
</g>
<defs>
<clipPath id="clip0_40006353_12480">
<rect width="240" height="32" fill="white"/>
</clipPath>
</defs>
</svg>
