<svg width="240" height="32" viewBox="0 0 240 32" fill="none" xmlns="http://www.w3.org/2000/svg">
<g clip-path="url(#clip0_40006380_18056)">
<path d="M164.414 6.32645L157.969 12.1505L159.507 13.6548C159.507 13.6548 164.383 9.3856 164.447 9.33079C164.507 9.3856 169.382 13.6548 169.382 13.6548L170.919 12.1505L164.447 6.29688L164.414 6.32645Z" fill="#05367B"/>
<path d="M198.533 17.5938C195.678 17.5938 193.358 19.6109 193.358 22.0924C193.358 24.5761 195.678 26.5967 198.533 26.5967C201.389 26.5967 203.71 24.5761 203.71 22.0924C203.71 19.6109 201.389 17.5938 198.533 17.5938ZM198.533 24.7051C196.925 24.7051 195.617 23.5318 195.617 22.0924C195.617 20.6558 196.925 19.4882 198.533 19.4882C200.142 19.4882 201.449 20.6558 201.449 22.0924C201.449 23.5318 200.142 24.7051 198.533 24.7051Z" fill="#05367B"/>
<path d="M204.662 6.66406H192.359V8.55422H196.677C196.498 8.71649 192.234 12.5992 192.234 12.5992L193.773 14.1021C193.773 14.1021 198.469 9.95324 198.533 9.89771C198.599 9.95324 203.292 14.1021 203.292 14.1021L204.83 12.5992C204.83 12.5992 200.566 8.71649 200.389 8.55422H204.709V6.66406H204.662Z" fill="#05367B"/>
<path d="M206.352 14.8125H190.667V16.7365H206.401V14.8125H206.352Z" fill="#05367B"/>
<path d="M153.8 6.64062H151.377V24.1908H153.848V6.64062H153.8Z" fill="#05367B"/>
<path d="M139.05 6.91016H139V8.80319H146.515V17.8321H148.962V8.02002C148.962 7.24261 148.611 6.91016 147.783 6.91016H139.05Z" fill="#05367B"/>
<path d="M221.713 6.64062H219.29V24.1908H221.762V6.64062H221.713Z" fill="#05367B"/>
<path d="M206.961 6.91016H206.914V8.80319H214.428V17.8321H216.875V8.02002C216.875 7.24261 216.523 6.91016 215.7 6.91016H206.961Z" fill="#05367B"/>
<path d="M182.601 17.1797H180.249V20.5294H173.586V22.4556H189.317V20.5294H182.653V17.1797H182.601Z" fill="#05367B"/>
<path d="M187.45 6.91016H185.061V9.68514H177.829V6.91016H175.392V15.1299C175.41 15.854 175.815 16.1742 176.618 16.1742L186.287 16.1893C187.072 16.1742 187.475 15.854 187.5 15.1299V6.91016H187.45ZM185.061 14.2624H177.828V11.6143H185.061V14.2624Z" fill="#05367B"/>
<path d="M239.951 14.8125H224.267V16.7013H240V14.8125H239.951Z" fill="#05367B"/>
<path d="M226.03 6.66406H225.98V8.55423H235.56V13.3658H238.01V7.64051C237.97 6.95397 237.619 6.66406 236.842 6.66406H226.03Z" fill="#05367B"/>
<path d="M237.102 18.7461H226.894C226.226 18.7461 225.941 19.0122 225.941 19.6461V25.0324C225.941 25.6635 226.226 25.9339 226.894 25.9339H237.102C237.766 25.9339 238.051 25.6635 238.051 25.0324V19.6461C238.051 19.0122 237.766 18.7461 237.102 18.7461ZM235.633 24.0365H228.357V20.6363H235.456H235.633V24.0365Z" fill="#05367B"/>
<path d="M172.261 14.6016H156.578V16.5256H163.245V18.2737H158.504V20.189H167.958V21.1158H159.456C158.789 21.1158 158.504 21.3862 158.504 22.0158V25.0764C158.504 25.7073 158.789 25.9743 159.456 25.9743H170.388V24.0595H160.932V23.0312H169.435C170.106 23.0312 170.388 22.7636 170.388 22.1312V19.1737C170.388 18.5426 170.106 18.2737 169.435 18.2737H165.643V16.5256H172.31V14.6016H172.261Z" fill="#05367B"/>
<path d="M60.5672 26.0814H55.4121V6.5625H60.5672V26.0814Z" fill="#05367B"/>
<path d="M94.424 22.5518V15.1996C94.424 12.4188 92.1156 11.681 90.8911 11.6753H75.8074V6.57812H70.6566V22.2028C70.6544 22.2619 70.6357 23.6588 71.7178 24.7658C72.5601 25.6268 73.815 26.0617 75.4497 26.0617H90.889C92.1098 26.0617 94.424 25.3254 94.424 22.5518ZM75.8074 15.8912H89.2513V21.8451H75.8074V15.8912Z" fill="#05367B"/>
<path d="M121.58 6.57422H107.416C105.784 6.57422 104.533 7.00835 103.686 7.87014C102.604 8.97568 102.626 10.3733 102.626 10.4296V22.1765C102.626 22.2154 102.694 26.0585 107.404 26.0585H121.585C126.298 26.0585 126.367 22.2154 126.367 22.1794V10.4223C126.367 10.3733 126.392 8.97568 125.305 7.87014C124.467 7.00835 123.212 6.57422 121.58 6.57422ZM121.22 21.8411H107.776V10.7901H121.22V21.8411Z" fill="#05367B"/>
<path d="M0 32H32.0596V0H0V32Z" fill="#B2D233"/>
<path d="M19.7988 7.78248V9.68273H23.9801V26.0805H29.1352V4.75L19.7988 7.78248Z" fill="#05367B"/>
<path d="M38.3394 16.0457L48.4148 6.63672H41.8011L32.0596 16.0457L41.89 25.9825H48.4805L38.3394 16.0457Z" fill="#05367B"/>
</g>
<defs>
<clipPath id="clip0_40006380_18056">
<rect width="240" height="32" fill="white"/>
</clipPath>
</defs>
</svg>
