<svg width="140" height="32" viewBox="0 0 140 32" fill="none" xmlns="http://www.w3.org/2000/svg">
<path d="M26.8285 3.21875H0V30.3532H26.8285V3.21875Z" fill="#10366B"/>
<path d="M28.7979 1H1.72656V27.8767H28.7979V1Z" fill="#9FBE34"/>
<path d="M26.5672 5.39548H30.5957L27.3957 7.78674L28.7386 11.6242L25.3243 9.13273L22.1243 11.524L23.3672 7.68651L20.3672 5.4098H24.2957L25.5386 1.74414L26.5672 5.4098V5.39548Z" fill="#103567"/>
<path d="M18.6283 9.83524H21.3426L19.1855 11.4246L20.1283 14.0593L17.8855 12.3697L15.7283 13.9591L16.5712 11.3244L14.4141 9.73501H17.0426L17.8855 7.30078L18.6283 9.83524Z" fill="#103567"/>
<path d="M11.6391 10.7222H13.4105L12.0105 11.8391L12.6676 13.5144L11.2676 12.3976L9.86763 13.5144L10.3391 11.8391L9.03906 10.8082H10.7105L11.2676 9.21875L11.6391 10.7079V10.7222Z" fill="#103567"/>
<path d="M31.7422 5.02282V6.69814H34.7707V20.6591H38.3279V2.78906H37.9565L31.7422 5.02282Z" fill="white"/>
<path d="M40.1875 12.1814L47.0303 20.6582H51.7446L44.6589 12.1814L51.7446 4.27734H47.0161L40.1875 12.1814Z" fill="white"/>
<path d="M60.8167 10.6211H52.4453V14.072H60.8167V10.6211Z" fill="white"/>
<path d="M62.3008 4.2793V7.65857H68.5865V20.5456H72.4007V7.65857H78.6864V4.2793H62.3008Z" fill="white"/>
<path d="M95.2129 4.10547H84.4129C84.4129 4.10547 81.4844 4.10547 81.4844 6.88335V17.4794C81.4844 17.4794 81.4844 20.4434 84.6272 20.4434H95.0272C95.0272 20.4434 97.9557 20.4434 97.9557 17.551V6.96926C97.9557 6.96926 97.9557 4.10547 95.2129 4.10547ZM94.47 16.9782H85.0129C84.9986 16.9782 85.0129 7.61361 85.0129 7.61361L94.47 7.65657V16.9782Z" fill="white"/>
<path d="M114.988 3.96484H104.16C104.16 3.96484 100.945 3.96484 100.945 7.17229V20.4603H104.617V16.0644H115.002C115.002 16.0644 117.674 16.093 117.674 13.3724V6.7284C117.674 6.7284 117.674 3.96484 115.002 3.96484H114.988ZM113.974 12.6278H104.617V7.64482H113.974V12.6278Z" fill="white"/>
<path d="M35.0995 30.1401H34.071L32.7424 28.293C32.7138 28.25 32.671 28.1784 32.6281 28.0925V30.1544H31.8281V25.959H32.6281V27.9493C32.6567 27.892 32.6853 27.8205 32.7424 27.7345L33.9995 25.959H34.971L33.4281 27.9636L35.0995 30.1544V30.1401Z" fill="white"/>
<path d="M35.1562 28.65C35.1562 28.1631 35.2991 27.7765 35.5848 27.4901C35.8705 27.2037 36.2562 27.0605 36.742 27.0605C37.2277 27.0605 37.5848 27.2037 37.8562 27.4758C38.1277 27.7479 38.2705 28.1345 38.2705 28.5927C38.2705 29.0509 38.1277 29.4661 37.842 29.7668C37.5562 30.0532 37.1705 30.2107 36.6991 30.2107C36.2277 30.2107 35.8562 30.0675 35.5705 29.7955C35.2848 29.5234 35.1562 29.1368 35.1562 28.6643V28.65ZM35.9562 28.65C35.9562 29.28 36.2134 29.595 36.7277 29.595C37.242 29.595 37.4705 29.2657 37.4705 28.6213C37.4705 27.977 37.2277 27.6906 36.7277 27.6906C36.2277 27.6906 36.2991 27.7765 36.1562 27.9483C36.0277 28.1202 35.9562 28.3493 35.9562 28.65Z" fill="white"/>
<path d="M40.6151 27.8761C40.5151 27.8188 40.3865 27.7758 40.2293 27.7758C40.0722 27.7758 39.8722 27.8618 39.7579 28.0193C39.6436 28.1768 39.5865 28.4059 39.5865 28.6779V30.1385H38.8008V27.1315H39.5865V27.7043C39.7293 27.289 39.9865 27.0742 40.3722 27.0742C40.7579 27.0742 40.5579 27.0742 40.6151 27.1172V27.8618V27.8761Z" fill="white"/>
<path d="M43.5423 28.8641H41.5566C41.5852 29.3796 41.8709 29.623 42.4137 29.623C42.9566 29.623 43.0423 29.5371 43.2994 29.3653V29.9666C43.028 30.1242 42.6709 30.2101 42.2423 30.2101C41.8137 30.2101 41.428 30.0812 41.1709 29.8091C40.9137 29.5371 40.7852 29.1648 40.7852 28.6779C40.7852 28.1911 40.928 27.8188 41.1994 27.5181C41.4709 27.2174 41.8137 27.0742 42.228 27.0742C42.6423 27.0742 42.9709 27.2031 43.1994 27.4608C43.428 27.7186 43.5423 28.0765 43.5423 28.5204V28.8784V28.8641ZM42.7994 28.3343C42.7994 27.8618 42.5994 27.6183 42.2137 27.6183C41.828 27.6183 41.9137 27.6899 41.7852 27.8188C41.6566 27.9477 41.5852 28.1195 41.5566 28.3343H42.7994Z" fill="white"/>
<path d="M44.0826 27.332C44.2112 27.2604 44.3826 27.1888 44.5969 27.1458C44.8112 27.1029 44.9969 27.0742 45.1683 27.0742C45.9683 27.0742 46.3683 27.4895 46.3683 28.3057V30.1385H45.6254V29.6946C45.4254 30.0382 45.1254 30.2101 44.7397 30.2101C44.354 30.2101 44.2254 30.1242 44.054 29.9666C43.8826 29.8091 43.7969 29.58 43.7969 29.308C43.7969 28.7352 44.1397 28.4059 44.8112 28.3057L45.6397 28.1911C45.6397 27.8045 45.454 27.6183 45.0826 27.6183C44.7112 27.6183 44.3969 27.7329 44.0969 27.9477V27.3176L44.0826 27.332ZM45.0397 28.7639C44.6969 28.8068 44.5254 28.9643 44.5254 29.2221C44.5254 29.4798 44.5683 29.4368 44.6397 29.5084C44.7254 29.58 44.8254 29.623 44.9683 29.623C45.1112 29.623 45.3112 29.5514 45.4397 29.4225C45.5683 29.2937 45.6254 29.1218 45.6254 28.9214V28.6923L45.0397 28.7639Z" fill="white"/>
<path d="M51.816 26.6183H50.6302V30.1408H49.8302V26.6183H48.6445V25.9453H51.816V26.6183Z" fill="white"/>
<path d="M54.7728 28.8641H52.787C52.8156 29.3796 53.1013 29.623 53.6442 29.623C54.187 29.623 54.2728 29.5371 54.5299 29.3653V29.9666C54.2585 30.1242 53.9013 30.2101 53.4728 30.2101C53.0442 30.2101 52.6585 30.0812 52.4013 29.8091C52.1442 29.5371 52.0156 29.1648 52.0156 28.6779C52.0156 28.1911 52.1585 27.8188 52.4299 27.5181C52.7013 27.2174 53.0442 27.0742 53.4585 27.0742C53.8728 27.0742 54.2013 27.2031 54.4299 27.4608C54.6585 27.7186 54.7728 28.0765 54.7728 28.5204V28.8784V28.8641ZM54.0442 28.3343C54.0442 27.8618 53.8442 27.6183 53.4585 27.6183C53.0728 27.6183 53.1585 27.6899 53.0299 27.8188C52.9013 27.9477 52.8299 28.1195 52.8013 28.3343H54.0442Z" fill="white"/>
<path d="M57.4431 30.0265C57.2288 30.1554 56.9431 30.2127 56.5716 30.2127C56.2002 30.2127 55.7716 30.0695 55.5002 29.7974C55.2288 29.5254 55.0859 29.1531 55.0859 28.7092C55.0859 28.2653 55.2288 27.7928 55.5288 27.5064C55.8288 27.22 56.2145 27.0625 56.7145 27.0625C57.2145 27.0625 57.2859 27.1055 57.4574 27.2057V27.9073C57.2574 27.7641 57.0431 27.6782 56.8002 27.6782C56.5574 27.6782 56.3002 27.7641 56.1431 27.936C55.9859 28.1078 55.9002 28.3512 55.9002 28.6376C55.9002 28.924 55.9716 29.1531 56.1288 29.3249C56.2859 29.4967 56.5002 29.5683 56.7716 29.5683C57.0431 29.5683 57.2431 29.4967 57.4574 29.3392V29.9979L57.4431 30.0265Z" fill="white"/>
<path d="M60.683 30.1381H59.8973V28.4341C59.8973 27.933 59.7259 27.6896 59.3687 27.6896C59.0116 27.6896 59.0402 27.7612 58.9259 27.9043C58.8116 28.0475 58.7545 28.2194 58.7545 28.4341V30.1381H57.9688V25.6992H58.7545V27.6036C58.983 27.2457 59.2973 27.0738 59.683 27.0738C60.3545 27.0738 60.683 27.4891 60.683 28.3053V30.1524V30.1381Z" fill="white"/>
<path d="M64.084 30.1411H63.2983V28.4658C63.2983 27.9503 63.1126 27.6925 62.7555 27.6925C62.3983 27.6925 62.4269 27.7641 62.3126 27.9073C62.1983 28.0505 62.1412 28.2223 62.1412 28.4371V30.1411H61.3555V27.1341H62.1412V27.6209C62.3555 27.2486 62.684 27.0625 63.0983 27.0625C63.7555 27.0625 64.084 27.4778 64.084 28.2939V30.1268V30.1411Z" fill="white"/>
<path d="M64.5547 28.6519C64.5547 28.1651 64.6975 27.7784 64.9833 27.4921C65.269 27.2057 65.6547 27.0625 66.1404 27.0625C66.6261 27.0625 66.9832 27.2057 67.2547 27.4778C67.5261 27.7498 67.669 28.1364 67.669 28.5946C67.669 29.0528 67.5261 29.4681 67.2404 29.7688C66.9547 30.0552 66.569 30.2127 66.0975 30.2127C65.6261 30.2127 65.2547 30.0695 64.969 29.7974C64.6833 29.5254 64.5547 29.1388 64.5547 28.6662V28.6519ZM65.3547 28.6519C65.3547 29.2819 65.6118 29.597 66.1261 29.597C66.6404 29.597 66.869 29.2676 66.869 28.6233C66.869 27.9789 66.6261 27.6925 66.1118 27.6925C65.5975 27.6925 65.6833 27.7784 65.5404 27.9503C65.3975 28.1221 65.3404 28.3512 65.3404 28.6519H65.3547Z" fill="white"/>
<path d="M68.1992 30.1381V25.6992H68.9849V30.1381H68.1992Z" fill="white"/>
<path d="M69.5 28.6519C69.5 28.1651 69.6429 27.7784 69.9286 27.4921C70.2143 27.2057 70.6 27.0625 71.0857 27.0625C71.5714 27.0625 71.9286 27.2057 72.2 27.4778C72.4714 27.7498 72.6143 28.1364 72.6143 28.5946C72.6143 29.0528 72.4714 29.4681 72.1857 29.7688C71.9 30.0695 71.5143 30.2127 71.0428 30.2127C70.5714 30.2127 70.2 30.0695 69.9143 29.7974C69.6429 29.511 69.5 29.1388 69.5 28.6662V28.6519ZM70.2857 28.6519C70.2857 29.2819 70.5429 29.597 71.0571 29.597C71.5714 29.597 71.8 29.2676 71.8 28.6233C71.8 27.9789 71.5428 27.6925 71.0428 27.6925C70.5429 27.6925 70.6143 27.7784 70.4714 27.9503C70.3429 28.1221 70.2714 28.3512 70.2714 28.6519H70.2857Z" fill="white"/>
<path d="M75.931 29.8235C75.931 30.3819 75.7739 30.8115 75.4739 31.0978C75.1739 31.3842 74.731 31.5417 74.1596 31.5417C73.5882 31.5417 73.4453 31.4845 73.2025 31.3556V30.6683C73.5167 30.8544 73.8167 30.9403 74.131 30.9403C74.4453 30.9403 74.7024 30.8544 74.8739 30.6826C75.0453 30.5108 75.131 30.2673 75.131 29.9523V29.6803C74.9167 30.0382 74.6025 30.2101 74.1739 30.2101C73.7453 30.2101 73.5025 30.0812 73.2882 29.8091C73.0596 29.5371 72.9453 29.1791 72.9453 28.7209C72.9453 28.2627 73.0739 27.8188 73.3167 27.5181C73.5596 27.2174 73.8882 27.0742 74.2882 27.0742C74.6882 27.0742 74.931 27.2174 75.1167 27.5181V27.1458H75.9024V29.8378L75.931 29.8235ZM75.1596 28.4202C75.1596 28.2197 75.1024 28.0479 74.9739 27.9047C74.8453 27.7615 74.6882 27.6899 74.4882 27.6899C74.2882 27.6899 74.0882 27.7758 73.9453 27.962C73.8167 28.1338 73.7453 28.3916 73.7453 28.7066C73.7453 29.0216 73.8025 29.1934 73.931 29.3653C74.0596 29.5371 74.231 29.6087 74.431 29.6087C74.631 29.6087 74.8167 29.5228 74.9453 29.3653C75.0739 29.2077 75.1453 28.993 75.1453 28.7352V28.4345L75.1596 28.4202Z" fill="white"/>
<path d="M79.3292 27.1315L78.0864 30.4392C77.8149 31.1695 77.4007 31.5417 76.8578 31.5417C76.315 31.5417 76.515 31.5131 76.3864 31.4702V30.8258C76.5007 30.8831 76.615 30.9117 76.7578 30.9117C76.9864 30.9117 77.1578 30.7828 77.2578 30.5394L77.4435 30.1099L76.2578 27.1172H77.1292L77.7578 29.0789C77.7721 29.1362 77.8007 29.265 77.8292 29.4369C77.8435 29.3366 77.8721 29.2221 77.915 29.0932L78.5578 27.1172H79.3435L79.3292 27.1315Z" fill="white"/>
<path d="M81.199 28.8071H79.6133V28.2344H81.199V28.8071Z" fill="white"/>
<path d="M83.6971 27.8761C83.5971 27.8188 83.4685 27.7758 83.3114 27.7758C83.1542 27.7758 82.9542 27.8618 82.84 28.0193C82.7257 28.1768 82.6685 28.4059 82.6685 28.6779V30.1385H81.8828V27.1315H82.6685V27.7043C82.8114 27.289 83.0685 27.0742 83.4542 27.0742C83.8399 27.0742 83.64 27.0742 83.6971 27.1172V27.8618V27.8761Z" fill="white"/>
<path d="M84.1138 27.332C84.2424 27.2604 84.4138 27.1888 84.6281 27.1458C84.8424 27.1029 85.0281 27.0742 85.1996 27.0742C85.9996 27.0742 86.3995 27.4895 86.3995 28.3057V30.1385H85.6567V29.6946C85.4567 30.0382 85.1567 30.2101 84.771 30.2101C84.3853 30.2101 84.2567 30.1242 84.0853 29.9666C83.9138 29.8091 83.8281 29.58 83.8281 29.308C83.8281 28.7352 84.171 28.4059 84.8424 28.3057L85.671 28.1911C85.671 27.8045 85.4853 27.6183 85.1138 27.6183C84.7424 27.6183 84.4281 27.7329 84.1281 27.9477V27.3176L84.1138 27.332ZM85.071 28.7639C84.7281 28.8068 84.5567 28.9643 84.5567 29.2221C84.5567 29.4798 84.5996 29.4368 84.671 29.5084C84.7424 29.58 84.8567 29.623 84.9996 29.623C85.1424 29.623 85.3424 29.5514 85.471 29.4225C85.5995 29.2937 85.6567 29.1218 85.6567 28.9214V28.6923L85.071 28.7639Z" fill="white"/>
<path d="M88.7267 30.1122C88.5981 30.1838 88.4124 30.2124 88.1695 30.2124C87.5552 30.2124 87.2552 29.8831 87.2552 29.2388V27.7496H86.7695V27.1482H87.2552V26.4752L88.041 26.2461V27.1482H88.7267V27.7496H88.041V29.0956C88.041 29.4249 88.1695 29.5967 88.4267 29.5967C88.6838 29.5967 88.6267 29.5681 88.7267 29.5108V30.1122Z" fill="white"/>
<path d="M89.0859 26.1444C89.0859 26.0155 89.1288 25.9153 89.2145 25.8437C89.3002 25.7721 89.4145 25.7148 89.5431 25.7148C89.6717 25.7148 89.7859 25.7578 89.8716 25.8294C89.9574 25.9153 90.0002 26.0155 90.0002 26.1301C90.0002 26.2446 89.9574 26.3592 89.8716 26.4451C89.7859 26.531 89.6717 26.574 89.5431 26.574C89.4145 26.574 89.3002 26.531 89.2145 26.4451C89.1288 26.3592 89.0859 26.259 89.0859 26.1444ZM89.1574 30.1394V27.1324H89.9431V30.1394H89.1574Z" fill="white"/>
<path d="M93.3692 30.1411H92.5835V28.4658C92.5835 27.9503 92.3978 27.6925 92.0406 27.6925C91.6835 27.6925 91.7121 27.7641 91.5978 27.9073C91.4835 28.0505 91.4263 28.2223 91.4263 28.4371V30.1411H90.6406V27.1341H91.4263V27.6209C91.6406 27.2486 91.9692 27.0625 92.3835 27.0625C93.0406 27.0625 93.3692 27.4778 93.3692 28.2939V30.1268V30.1411Z" fill="white"/>
<path d="M96.8294 29.8235C96.8294 30.3819 96.6723 30.8115 96.3723 31.0978C96.0723 31.3842 95.6295 31.5417 95.058 31.5417C94.4866 31.5417 94.3437 31.4845 94.1009 31.3556V30.6683C94.4152 30.8544 94.7152 30.9403 95.0295 30.9403C95.3437 30.9403 95.6009 30.8544 95.7723 30.6826C95.9437 30.5108 96.0295 30.2673 96.0295 29.9523V29.6803C95.8152 30.0382 95.5009 30.2101 95.0723 30.2101C94.6437 30.2101 94.4009 30.0812 94.1866 29.8091C93.958 29.5371 93.8438 29.1791 93.8438 28.7209C93.8438 28.2627 93.9723 27.8188 94.2152 27.5181C94.458 27.2174 94.7866 27.0742 95.1866 27.0742C95.5866 27.0742 95.8295 27.2174 96.0152 27.5181V27.1458H96.8009V29.8378L96.8294 29.8235ZM96.058 28.4202C96.058 28.2197 96.0009 28.0479 95.8723 27.9047C95.7437 27.7615 95.5866 27.6899 95.3866 27.6899C95.1866 27.6899 94.9866 27.7758 94.8437 27.962C94.7152 28.1338 94.6437 28.3916 94.6437 28.7066C94.6437 29.0216 94.7009 29.1934 94.8295 29.3653C94.958 29.5371 95.1295 29.6087 95.3295 29.6087C95.5295 29.6087 95.7152 29.5228 95.8437 29.3653C95.9723 29.2077 96.0437 28.993 96.0437 28.7352V28.4345L96.058 28.4202Z" fill="white"/>
<path d="M99.2695 28.0925C99.2695 27.4338 99.4552 26.8897 99.8267 26.4888C100.198 26.0878 100.698 25.873 101.327 25.873C101.955 25.873 102.398 26.0735 102.755 26.4744C103.112 26.8754 103.298 27.3909 103.298 28.0066C103.298 28.6223 103.112 29.195 102.741 29.6103C102.37 30.0255 101.884 30.226 101.27 30.226C100.655 30.226 100.198 30.0255 99.8267 29.6246C99.4552 29.2237 99.2695 28.7225 99.2695 28.1068V28.0925ZM100.112 28.0495C100.112 28.4791 100.212 28.8228 100.427 29.0948C100.641 29.3669 100.912 29.5101 101.27 29.5101C101.627 29.5101 101.927 29.3812 102.127 29.1235C102.327 28.8657 102.441 28.5077 102.441 28.0638C102.441 27.62 102.341 27.2477 102.141 26.9756C101.941 26.7179 101.655 26.5747 101.298 26.5747C100.941 26.5747 100.641 26.7179 100.427 26.9899C100.212 27.262 100.112 27.62 100.112 28.0495Z" fill="white"/>
<path d="M104.598 29.7662V31.5274H103.812V27.1458H104.598V27.6183C104.827 27.2604 105.155 27.0742 105.57 27.0742C105.984 27.0742 106.241 27.2031 106.455 27.4752C106.67 27.7329 106.784 28.1052 106.784 28.5634C106.784 29.0216 106.655 29.4655 106.412 29.7662C106.17 30.0669 105.841 30.2244 105.441 30.2244C105.041 30.2244 104.798 30.0812 104.598 29.7805V29.7662ZM104.584 28.8355C104.584 29.0502 104.641 29.2364 104.77 29.3796C104.898 29.5228 105.055 29.5944 105.241 29.5944C105.427 29.5944 105.655 29.5084 105.784 29.3223C105.912 29.1361 105.984 28.8927 105.984 28.5634C105.984 27.9763 105.755 27.6899 105.298 27.6899C104.841 27.6899 104.912 27.7758 104.784 27.9334C104.655 28.0909 104.584 28.3057 104.584 28.5491V28.8498V28.8355Z" fill="white"/>
<path d="M109.898 28.8641H107.912C107.941 29.3796 108.226 29.623 108.769 29.623C109.312 29.623 109.398 29.5371 109.655 29.3653V29.9666C109.383 30.1242 109.026 30.2101 108.598 30.2101C108.169 30.2101 107.783 30.0812 107.526 29.8091C107.269 29.5371 107.141 29.1648 107.141 28.6779C107.141 28.1911 107.283 27.8188 107.555 27.5181C107.826 27.2174 108.169 27.0742 108.583 27.0742C108.998 27.0742 109.326 27.2031 109.555 27.4608C109.783 27.7186 109.898 28.0765 109.898 28.5204V28.8784V28.8641ZM109.155 28.3343C109.155 27.8618 108.955 27.6183 108.569 27.6183C108.183 27.6183 108.269 27.6899 108.141 27.8188C108.012 27.9477 107.941 28.1195 107.912 28.3343H109.155Z" fill="white"/>
<path d="M113.111 30.1411H112.326V28.4658C112.326 27.9503 112.14 27.6925 111.783 27.6925C111.426 27.6925 111.454 27.7641 111.34 27.9073C111.226 28.0505 111.169 28.2223 111.169 28.4371V30.1411H110.383V27.1341H111.169V27.6209C111.383 27.2486 111.711 27.0625 112.126 27.0625C112.783 27.0625 113.111 27.4778 113.111 28.2939V30.1268V30.1411Z" fill="white"/>
<path d="M116.473 29.7662V31.5274H115.688V27.1458H116.473V27.6183C116.702 27.2604 117.03 27.0742 117.445 27.0742C117.859 27.0742 118.116 27.2031 118.33 27.4752C118.545 27.7329 118.659 28.1052 118.659 28.5634C118.659 29.0216 118.53 29.4655 118.287 29.7662C118.045 30.0669 117.716 30.2244 117.316 30.2244C116.916 30.2244 116.673 30.0812 116.473 29.7805V29.7662ZM116.459 28.8355C116.459 29.0502 116.516 29.2364 116.645 29.3796C116.773 29.5228 116.93 29.5944 117.116 29.5944C117.302 29.5944 117.53 29.5084 117.659 29.3223C117.787 29.1361 117.859 28.8927 117.859 28.5634C117.859 27.9763 117.63 27.6899 117.173 27.6899C116.716 27.6899 116.787 27.7758 116.659 27.9334C116.53 28.0909 116.459 28.3057 116.459 28.5491V28.8498V28.8355Z" fill="white"/>
<path d="M119.172 30.1381V25.6992H119.958V30.1381H119.172Z" fill="white"/>
<path d="M120.727 27.332C120.856 27.2604 121.027 27.1888 121.241 27.1458C121.456 27.1029 121.641 27.0742 121.813 27.0742C122.613 27.0742 123.013 27.4895 123.013 28.3057V30.1385H122.27V29.6946C122.07 30.0382 121.77 30.2101 121.384 30.2101C120.999 30.2101 120.87 30.1242 120.699 29.9666C120.527 29.8091 120.441 29.58 120.441 29.308C120.441 28.7352 120.784 28.4059 121.456 28.3057L122.284 28.1911C122.284 27.8045 122.099 27.6183 121.727 27.6183C121.356 27.6183 121.041 27.7329 120.741 27.9477V27.3176L120.727 27.332ZM121.684 28.7639C121.341 28.8068 121.17 28.9643 121.17 29.2221C121.17 29.4798 121.213 29.4368 121.284 29.5084C121.356 29.58 121.47 29.623 121.613 29.623C121.756 29.623 121.956 29.5514 122.084 29.4225C122.213 29.2937 122.27 29.1218 122.27 28.9214V28.6923L121.684 28.7639Z" fill="white"/>
<path d="M125.34 30.1122C125.211 30.1838 125.026 30.2124 124.783 30.2124C124.169 30.2124 123.869 29.8831 123.869 29.2388V27.7496H123.383V27.1482H123.869V26.4752L124.654 26.2461V27.1482H125.34V27.7496H124.654V29.0956C124.654 29.4249 124.783 29.5967 125.04 29.5967C125.297 29.5967 125.24 29.5681 125.34 29.5108V30.1122Z" fill="white"/>
<path d="M127.571 26.3162C127.457 26.2733 127.357 26.2446 127.243 26.2446C126.943 26.2446 126.786 26.4164 126.786 26.7744V27.1324H127.471V27.7338H126.786V30.1251H126V27.7338H125.5V27.1324H126V26.7315C126 26.3878 126.1 26.1301 126.314 25.9296C126.529 25.7291 126.8 25.6289 127.143 25.6289C127.486 25.6289 127.457 25.6432 127.571 25.6862V26.3162Z" fill="white"/>
<path d="M127.625 28.6519C127.625 28.1651 127.768 27.7784 128.054 27.4921C128.339 27.2057 128.725 27.0625 129.211 27.0625C129.696 27.0625 130.054 27.2057 130.325 27.4778C130.596 27.7498 130.739 28.1364 130.739 28.5946C130.739 29.0528 130.596 29.4681 130.311 29.7688C130.025 30.0695 129.639 30.2127 129.168 30.2127C128.696 30.2127 128.325 30.0695 128.039 29.7974C127.768 29.511 127.625 29.1388 127.625 28.6662V28.6519ZM128.425 28.6519C128.425 29.2819 128.682 29.597 129.196 29.597C129.711 29.597 129.939 29.2676 129.939 28.6233C129.939 27.9789 129.682 27.6925 129.182 27.6925C128.682 27.6925 128.754 27.7784 128.611 27.9503C128.482 28.1221 128.411 28.3512 128.411 28.6519H128.425Z" fill="white"/>
<path d="M133.099 27.8761C132.999 27.8188 132.871 27.7758 132.714 27.7758C132.557 27.7758 132.357 27.8618 132.242 28.0193C132.128 28.1768 132.071 28.4059 132.071 28.6779V30.1385H131.285V27.1315H132.071V27.7043C132.214 27.289 132.471 27.0742 132.857 27.0742C133.242 27.0742 133.042 27.0742 133.099 27.1172V27.8618V27.8761Z" fill="white"/>
<path d="M138.001 30.1411H137.215V28.4228C137.215 27.936 137.044 27.6782 136.687 27.6782C136.33 27.6782 136.387 27.7498 136.273 27.9073C136.158 28.0505 136.101 28.2367 136.101 28.4514V30.1411H135.315V28.3942C135.315 27.9216 135.144 27.6925 134.787 27.6925C134.43 27.6925 134.487 27.7641 134.373 27.9073C134.258 28.0505 134.215 28.2367 134.215 28.4658V30.1411H133.43V27.1341H134.215V27.6066C134.444 27.2486 134.758 27.0625 135.173 27.0625C135.587 27.0625 135.873 27.2486 136.03 27.6353C136.258 27.2486 136.587 27.0625 137.015 27.0625C137.658 27.0625 137.987 27.4634 137.987 28.2796V30.1411H138.001Z" fill="white"/>
</svg>
