<svg width="120" height="36" viewBox="0 0 120 36" fill="none" xmlns="http://www.w3.org/2000/svg">
<path d="M24.5751 7.00781H2.03906V29.7478H24.5751V7.00781Z" fill="#10366B"/>
<path d="M26.2322 5.14844H3.49219V27.6724H26.2322V5.14844Z" fill="#9FBE34"/>
<path d="M24.3564 8.83148H27.7404L25.0524 10.8355L26.1804 14.0515L23.3124 11.9635L20.6244 13.9675L21.6684 10.7515L19.1484 8.84348H22.4484L23.4924 5.77148L24.3564 8.84348V8.83148Z" fill="#103567"/>
<path d="M17.6845 12.5517H19.9645L18.1525 13.8837L18.9445 16.0917L17.0605 14.6757L15.2485 16.0077L15.9565 13.7997L14.1445 12.4677H16.3525L17.0605 10.4277L17.6845 12.5517Z" fill="#103567"/>
<path d="M11.8168 13.2952H13.3048L12.1288 14.2312L12.6808 15.6352L11.5048 14.6992L10.3288 15.6352L10.7248 14.2312L9.63281 13.3672H11.0368L11.5048 12.0352L11.8168 13.2832V13.2952Z" fill="#103567"/>
<path d="M28.7031 8.52044V9.92444H31.2471V21.6244H34.2351V6.64844H33.9231L28.7031 8.52044Z" fill="#0F335F"/>
<path d="M35.7969 14.5205L41.5449 21.6245H45.5049L39.5529 14.5205L45.5049 7.89648H41.5329L35.7969 14.5205Z" fill="#0F335F"/>
<path d="M53.1218 13.2129H46.0898V16.1049H53.1218V13.2129Z" fill="#0F335F"/>
<path d="M54.3711 7.89648V10.7285H59.6511V21.5285H62.8551V10.7285H68.1351V7.89648H54.3711Z" fill="#0F335F"/>
<path d="M82.0203 7.75195H72.9483C72.9483 7.75195 70.4883 7.75195 70.4883 10.08V18.96C70.4883 18.96 70.4883 21.444 73.1283 21.444H81.8643C81.8643 21.444 84.3243 21.444 84.3243 19.02V10.152C84.3243 10.152 84.3243 7.75195 82.0203 7.75195ZM81.3963 18.54H73.4523C73.4403 18.54 73.4523 10.692 73.4523 10.692L81.3963 10.728V18.54Z" fill="#0F335F"/>
<path d="M98.628 7.63281H89.532C89.532 7.63281 86.832 7.63281 86.832 10.3208V21.4568H89.916V17.7728H98.64C98.64 17.7728 100.884 17.7968 100.884 15.5168V9.94881C100.884 9.94881 100.884 7.63281 98.64 7.63281H98.628ZM97.776 14.8928H89.916V10.7168H97.776V14.8928Z" fill="#0F335F"/>
<path d="M31.5214 29.5685H30.6574L29.5414 28.0205C29.5174 27.9845 29.4814 27.9245 29.4454 27.8525V29.5805H28.7734V26.0645H29.4454V27.7325C29.4694 27.6845 29.4934 27.6245 29.5414 27.5525L30.5974 26.0645H31.4134L30.1174 27.7445L31.5214 29.5805V29.5685Z" fill="#0D3464"/>
<path d="M31.5703 28.3203C31.5703 27.9123 31.6903 27.5883 31.9303 27.3483C32.1703 27.1083 32.4943 26.9883 32.9023 26.9883C33.3103 26.9883 33.6103 27.1083 33.8383 27.3363C34.0663 27.5643 34.1863 27.8883 34.1863 28.2723C34.1863 28.6563 34.0663 29.0043 33.8263 29.2563C33.5863 29.4963 33.2623 29.6283 32.8663 29.6283C32.4703 29.6283 32.1583 29.5083 31.9183 29.2803C31.6783 29.0523 31.5703 28.7283 31.5703 28.3323V28.3203ZM32.2423 28.3203C32.2423 28.8483 32.4583 29.1123 32.8903 29.1123C33.3223 29.1123 33.5143 28.8363 33.5143 28.2963C33.5143 27.7563 33.3103 27.5163 32.8903 27.5163C32.4703 27.5163 32.5303 27.5883 32.4103 27.7323C32.3023 27.8763 32.2423 28.0683 32.2423 28.3203Z" fill="#0D3464"/>
<path d="M36.1529 27.674C36.0689 27.626 35.9609 27.59 35.8289 27.59C35.6969 27.59 35.5289 27.662 35.4329 27.794C35.3369 27.926 35.2889 28.118 35.2889 28.346V29.57H34.6289V27.05H35.2889V27.53C35.4089 27.182 35.6249 27.002 35.9489 27.002C36.2729 27.002 36.1049 27.002 36.1529 27.038V27.662V27.674Z" fill="#0D3464"/>
<path d="M38.6129 28.502H36.9449C36.9689 28.934 37.2089 29.138 37.6649 29.138C38.1209 29.138 38.1929 29.066 38.4089 28.922V29.426C38.1809 29.558 37.8809 29.63 37.5209 29.63C37.1609 29.63 36.8369 29.522 36.6209 29.294C36.4049 29.066 36.2969 28.754 36.2969 28.346C36.2969 27.938 36.4169 27.626 36.6449 27.374C36.8729 27.122 37.1609 27.002 37.5089 27.002C37.8569 27.002 38.1329 27.11 38.3249 27.326C38.5169 27.542 38.6129 27.842 38.6129 28.214V28.514V28.502ZM37.9889 28.058C37.9889 27.662 37.8209 27.458 37.4969 27.458C37.1729 27.458 37.2449 27.518 37.1369 27.626C37.0289 27.734 36.9689 27.878 36.9449 28.058H37.9889Z" fill="#0D3464"/>
<path d="M39.0681 27.218C39.1761 27.158 39.3201 27.098 39.5001 27.062C39.6801 27.026 39.8361 27.002 39.9801 27.002C40.6521 27.002 40.9881 27.35 40.9881 28.034V29.57H40.3641V29.198C40.1961 29.486 39.9441 29.63 39.6201 29.63C39.2961 29.63 39.1881 29.558 39.0441 29.426C38.9001 29.294 38.8281 29.102 38.8281 28.874C38.8281 28.394 39.1161 28.118 39.6801 28.034L40.3761 27.938C40.3761 27.614 40.2201 27.458 39.9081 27.458C39.5961 27.458 39.3321 27.554 39.0801 27.734V27.206L39.0681 27.218ZM39.8721 28.418C39.5841 28.454 39.4401 28.586 39.4401 28.802C39.4401 29.018 39.4761 28.982 39.5361 29.042C39.6081 29.102 39.6921 29.138 39.8121 29.138C39.9321 29.138 40.1001 29.078 40.2081 28.97C40.3161 28.862 40.3641 28.718 40.3641 28.55V28.358L39.8721 28.418Z" fill="#0D3464"/>
<path d="M45.5624 26.6167H44.5664V29.5687H43.8944V26.6167H42.8984V26.0527H45.5624V26.6167Z" fill="#0D3464"/>
<path d="M48.0465 28.502H46.3785C46.4025 28.934 46.6425 29.138 47.0985 29.138C47.5545 29.138 47.6265 29.066 47.8425 28.922V29.426C47.6145 29.558 47.3145 29.63 46.9545 29.63C46.5945 29.63 46.2705 29.522 46.0545 29.294C45.8385 29.066 45.7305 28.754 45.7305 28.346C45.7305 27.938 45.8505 27.626 46.0785 27.374C46.3065 27.122 46.5945 27.002 46.9425 27.002C47.2905 27.002 47.5665 27.11 47.7585 27.326C47.9505 27.542 48.0465 27.842 48.0465 28.214V28.514V28.502ZM47.4345 28.058C47.4345 27.662 47.2665 27.458 46.9425 27.458C46.6185 27.458 46.6905 27.518 46.5825 27.626C46.4745 27.734 46.4145 27.878 46.3905 28.058H47.4345Z" fill="#0D3464"/>
<path d="M50.2886 29.4723C50.1086 29.5803 49.8686 29.6283 49.5566 29.6283C49.2446 29.6283 48.8846 29.5083 48.6566 29.2803C48.4286 29.0523 48.3086 28.7403 48.3086 28.3683C48.3086 27.9963 48.4286 27.6003 48.6806 27.3603C48.9326 27.1203 49.2566 26.9883 49.6766 26.9883C50.0966 26.9883 50.1566 27.0243 50.3006 27.1083V27.6963C50.1326 27.5763 49.9526 27.5043 49.7486 27.5043C49.5446 27.5043 49.3286 27.5763 49.1966 27.7203C49.0646 27.8643 48.9926 28.0683 48.9926 28.3083C48.9926 28.5483 49.0526 28.7403 49.1846 28.8843C49.3166 29.0283 49.4966 29.0883 49.7246 29.0883C49.9526 29.0883 50.1206 29.0283 50.3006 28.8963V29.4483L50.2886 29.4723Z" fill="#0D3464"/>
<path d="M53.0144 29.5696H52.3544V28.1416C52.3544 27.7216 52.2104 27.5176 51.9104 27.5176C51.6104 27.5176 51.6344 27.5776 51.5384 27.6976C51.4424 27.8176 51.3944 27.9616 51.3944 28.1416V29.5696H50.7344V25.8496H51.3944V27.4456C51.5864 27.1456 51.8504 27.0016 52.1744 27.0016C52.7384 27.0016 53.0144 27.3496 53.0144 28.0336V29.5816V29.5696Z" fill="#0D3464"/>
<path d="M55.8701 29.5683H55.2101V28.1643C55.2101 27.7323 55.0541 27.5163 54.7541 27.5163C54.4541 27.5163 54.4781 27.5763 54.3821 27.6963C54.2861 27.8163 54.2381 27.9603 54.2381 28.1403V29.5683H53.5781V27.0483H54.2381V27.4563C54.4181 27.1443 54.6941 26.9883 55.0421 26.9883C55.5941 26.9883 55.8701 27.3363 55.8701 28.0203V29.5563V29.5683Z" fill="#0D3464"/>
<path d="M56.2656 28.3203C56.2656 27.9123 56.3856 27.5883 56.6256 27.3483C56.8656 27.1083 57.1896 26.9883 57.5976 26.9883C58.0056 26.9883 58.3056 27.1083 58.5336 27.3363C58.7616 27.5643 58.8816 27.8883 58.8816 28.2723C58.8816 28.6563 58.7616 29.0043 58.5216 29.2563C58.2816 29.4963 57.9576 29.6283 57.5616 29.6283C57.1656 29.6283 56.8536 29.5083 56.6136 29.2803C56.3736 29.0523 56.2656 28.7283 56.2656 28.3323V28.3203ZM56.9376 28.3203C56.9376 28.8483 57.1536 29.1123 57.5856 29.1123C58.0176 29.1123 58.2096 28.8363 58.2096 28.2963C58.2096 27.7563 58.0056 27.5163 57.5736 27.5163C57.1416 27.5163 57.2136 27.5883 57.0936 27.7323C56.9736 27.8763 56.9256 28.0683 56.9256 28.3203H56.9376Z" fill="#0D3464"/>
<path d="M59.3242 29.5696V25.8496H59.9842V29.5696H59.3242Z" fill="#0D3464"/>
<path d="M60.418 28.3203C60.418 27.9123 60.538 27.5883 60.778 27.3483C61.018 27.1083 61.342 26.9883 61.75 26.9883C62.158 26.9883 62.458 27.1083 62.686 27.3363C62.914 27.5643 63.034 27.8883 63.034 28.2723C63.034 28.6563 62.914 29.0043 62.674 29.2563C62.434 29.5083 62.11 29.6283 61.714 29.6283C61.318 29.6283 61.006 29.5083 60.766 29.2803C60.538 29.0403 60.418 28.7283 60.418 28.3323V28.3203ZM61.078 28.3203C61.078 28.8483 61.294 29.1123 61.726 29.1123C62.158 29.1123 62.35 28.8363 62.35 28.2963C62.35 27.7563 62.134 27.5163 61.714 27.5163C61.294 27.5163 61.354 27.5883 61.234 27.7323C61.126 27.8763 61.066 28.0683 61.066 28.3203H61.078Z" fill="#0D3464"/>
<path d="M65.8166 29.306C65.8166 29.774 65.6846 30.134 65.4326 30.374C65.1806 30.614 64.8086 30.746 64.3286 30.746C63.8486 30.746 63.7286 30.698 63.5246 30.59V30.014C63.7886 30.17 64.0406 30.242 64.3046 30.242C64.5686 30.242 64.7846 30.17 64.9286 30.026C65.0726 29.882 65.1446 29.678 65.1446 29.414V29.186C64.9646 29.486 64.7006 29.63 64.3406 29.63C63.9806 29.63 63.7766 29.522 63.5966 29.294C63.4046 29.066 63.3086 28.766 63.3086 28.382C63.3086 27.998 63.4166 27.626 63.6206 27.374C63.8246 27.122 64.1006 27.002 64.4366 27.002C64.7726 27.002 64.9766 27.122 65.1326 27.374V27.062H65.7926V29.318L65.8166 29.306ZM65.1686 28.13C65.1686 27.962 65.1206 27.818 65.0126 27.698C64.9046 27.578 64.7726 27.518 64.6046 27.518C64.4366 27.518 64.2686 27.59 64.1486 27.746C64.0406 27.89 63.9806 28.106 63.9806 28.37C63.9806 28.634 64.0286 28.778 64.1366 28.922C64.2446 29.066 64.3886 29.126 64.5566 29.126C64.7246 29.126 64.8806 29.054 64.9886 28.922C65.0966 28.79 65.1566 28.61 65.1566 28.394V28.142L65.1686 28.13Z" fill="#0D3464"/>
<path d="M68.6738 27.0491L67.6297 29.8211C67.4017 30.4331 67.0538 30.7451 66.5978 30.7451C66.1418 30.7451 66.3098 30.7211 66.2018 30.6851V30.1451C66.2978 30.1931 66.3938 30.2171 66.5138 30.2171C66.7058 30.2171 66.8498 30.1091 66.9338 29.9051L67.0897 29.5451L66.0938 27.0371H66.8258L67.3537 28.6811C67.3658 28.7291 67.3898 28.8371 67.4138 28.9811C67.4258 28.8971 67.4498 28.8011 67.4858 28.6931L68.0258 27.0371H68.6858L68.6738 27.0491Z" fill="#0D3464"/>
<path d="M70.2461 28.4527H68.9141V27.9727H70.2461V28.4527Z" fill="#0D3464"/>
<path d="M72.3443 27.674C72.2603 27.626 72.1523 27.59 72.0203 27.59C71.8883 27.59 71.7203 27.662 71.6243 27.794C71.5283 27.926 71.4803 28.118 71.4803 28.346V29.57H70.8203V27.05H71.4803V27.53C71.6003 27.182 71.8163 27.002 72.1403 27.002C72.4643 27.002 72.2963 27.002 72.3443 27.038V27.662V27.674Z" fill="#0D3464"/>
<path d="M72.6931 27.218C72.8011 27.158 72.9451 27.098 73.1251 27.062C73.3051 27.026 73.4611 27.002 73.6051 27.002C74.2771 27.002 74.6131 27.35 74.6131 28.034V29.57H73.9891V29.198C73.8211 29.486 73.5691 29.63 73.2451 29.63C72.9211 29.63 72.8131 29.558 72.6691 29.426C72.5251 29.294 72.4531 29.102 72.4531 28.874C72.4531 28.394 72.7411 28.118 73.3051 28.034L74.0011 27.938C74.0011 27.614 73.8451 27.458 73.5331 27.458C73.2211 27.458 72.9571 27.554 72.7051 27.734V27.206L72.6931 27.218ZM73.4971 28.418C73.2091 28.454 73.0651 28.586 73.0651 28.802C73.0651 29.018 73.1011 28.982 73.1611 29.042C73.2211 29.102 73.3171 29.138 73.4371 29.138C73.5571 29.138 73.7251 29.078 73.8331 28.97C73.9411 28.862 73.9891 28.718 73.9891 28.55V28.358L73.4971 28.418Z" fill="#0D3464"/>
<path d="M76.5698 29.5447C76.4618 29.6047 76.3058 29.6287 76.1018 29.6287C75.5858 29.6287 75.3338 29.3527 75.3338 28.8127V27.5647H74.9258V27.0607H75.3338V26.4967L75.9938 26.3047V27.0607H76.5698V27.5647H75.9938V28.6927C75.9938 28.9687 76.1018 29.1127 76.3178 29.1127C76.5338 29.1127 76.4858 29.0887 76.5698 29.0407V29.5447Z" fill="#0D3464"/>
<path d="M76.8672 26.2213C76.8672 26.1133 76.9032 26.0293 76.9752 25.9693C77.0472 25.9093 77.1432 25.8613 77.2512 25.8613C77.3592 25.8613 77.4552 25.8973 77.5272 25.9573C77.5992 26.0293 77.6352 26.1133 77.6352 26.2093C77.6352 26.3053 77.5992 26.4013 77.5272 26.4733C77.4552 26.5453 77.3592 26.5813 77.2512 26.5813C77.1432 26.5813 77.0472 26.5453 76.9752 26.4733C76.9032 26.4013 76.8672 26.3173 76.8672 26.2213ZM76.9272 29.5693V27.0493H77.5872V29.5693H76.9272Z" fill="#0D3464"/>
<path d="M80.4717 29.5683H79.8117V28.1643C79.8117 27.7323 79.6557 27.5163 79.3557 27.5163C79.0557 27.5163 79.0797 27.5763 78.9837 27.6963C78.8877 27.8163 78.8397 27.9603 78.8397 28.1403V29.5683H78.1797V27.0483H78.8397V27.4563C79.0197 27.1443 79.2957 26.9883 79.6437 26.9883C80.1957 26.9883 80.4717 27.3363 80.4717 28.0203V29.5563V29.5683Z" fill="#0D3464"/>
<path d="M83.3752 29.306C83.3752 29.774 83.2432 30.134 82.9912 30.374C82.7392 30.614 82.3672 30.746 81.8872 30.746C81.4072 30.746 81.2872 30.698 81.0832 30.59V30.014C81.3472 30.17 81.5992 30.242 81.8632 30.242C82.1272 30.242 82.3432 30.17 82.4872 30.026C82.6312 29.882 82.7032 29.678 82.7032 29.414V29.186C82.5232 29.486 82.2592 29.63 81.8992 29.63C81.5392 29.63 81.3352 29.522 81.1552 29.294C80.9632 29.066 80.8672 28.766 80.8672 28.382C80.8672 27.998 80.9752 27.626 81.1792 27.374C81.3832 27.122 81.6592 27.002 81.9952 27.002C82.3312 27.002 82.5352 27.122 82.6912 27.374V27.062H83.3512V29.318L83.3752 29.306ZM82.7272 28.13C82.7272 27.962 82.6792 27.818 82.5712 27.698C82.4632 27.578 82.3312 27.518 82.1632 27.518C81.9952 27.518 81.8272 27.59 81.7072 27.746C81.5992 27.89 81.5392 28.106 81.5392 28.37C81.5392 28.634 81.5872 28.778 81.6952 28.922C81.8032 29.066 81.9472 29.126 82.1152 29.126C82.2832 29.126 82.4392 29.054 82.5472 28.922C82.6552 28.79 82.7152 28.61 82.7152 28.394V28.142L82.7272 28.13Z" fill="#0D3464"/>
<path d="M85.4258 27.8522C85.4258 27.3002 85.5818 26.8442 85.8938 26.5082C86.2058 26.1722 86.6258 25.9922 87.1538 25.9922C87.6818 25.9922 88.0538 26.1602 88.3538 26.4962C88.6538 26.8322 88.8098 27.2642 88.8098 27.7802C88.8098 28.2962 88.6538 28.7762 88.3418 29.1242C88.0298 29.4722 87.6218 29.6402 87.1058 29.6402C86.5898 29.6402 86.2058 29.4722 85.8938 29.1362C85.5818 28.8002 85.4258 28.3802 85.4258 27.8642V27.8522ZM86.1338 27.8162C86.1338 28.1762 86.2178 28.4642 86.3978 28.6922C86.5778 28.9202 86.8058 29.0402 87.1058 29.0402C87.4058 29.0402 87.6578 28.9322 87.8258 28.7162C87.9938 28.5002 88.0898 28.2002 88.0898 27.8282C88.0898 27.4562 88.0058 27.1442 87.8378 26.9162C87.6698 26.7002 87.4298 26.5802 87.1298 26.5802C86.8298 26.5802 86.5778 26.7002 86.3978 26.9282C86.2178 27.1562 86.1338 27.4562 86.1338 27.8162Z" fill="#0D3464"/>
<path d="M89.9022 29.258V30.734H89.2422V27.062H89.9022V27.458C90.0942 27.158 90.3702 27.002 90.7182 27.002C91.0662 27.002 91.2822 27.11 91.4622 27.338C91.6422 27.554 91.7382 27.866 91.7382 28.25C91.7382 28.634 91.6302 29.006 91.4262 29.258C91.2222 29.51 90.9462 29.642 90.6102 29.642C90.2742 29.642 90.0702 29.522 89.9022 29.27V29.258ZM89.8902 28.478C89.8902 28.658 89.9382 28.814 90.0462 28.934C90.1542 29.054 90.2862 29.114 90.4422 29.114C90.5982 29.114 90.7902 29.042 90.8982 28.886C91.0062 28.73 91.0662 28.526 91.0662 28.25C91.0662 27.758 90.8742 27.518 90.4902 27.518C90.1062 27.518 90.1662 27.59 90.0582 27.722C89.9502 27.854 89.8902 28.034 89.8902 28.238V28.49V28.478Z" fill="#0D3464"/>
<path d="M94.3551 28.502H92.6871C92.7111 28.934 92.9511 29.138 93.4071 29.138C93.8631 29.138 93.9351 29.066 94.1511 28.922V29.426C93.9231 29.558 93.6231 29.63 93.2631 29.63C92.9031 29.63 92.5791 29.522 92.3631 29.294C92.1471 29.066 92.0391 28.754 92.0391 28.346C92.0391 27.938 92.1591 27.626 92.3871 27.374C92.6151 27.122 92.9031 27.002 93.2511 27.002C93.5991 27.002 93.8751 27.11 94.0671 27.326C94.2591 27.542 94.3551 27.842 94.3551 28.214V28.514V28.502ZM93.7311 28.058C93.7311 27.662 93.5631 27.458 93.2391 27.458C92.9151 27.458 92.9871 27.518 92.8791 27.626C92.7711 27.734 92.7111 27.878 92.6871 28.058H93.7311Z" fill="#0D3464"/>
<path d="M97.0537 29.5683H96.3937V28.1643C96.3937 27.7323 96.2377 27.5163 95.9377 27.5163C95.6377 27.5163 95.6617 27.5763 95.5657 27.6963C95.4697 27.8163 95.4217 27.9603 95.4217 28.1403V29.5683H94.7617V27.0483H95.4217V27.4563C95.6017 27.1443 95.8777 26.9883 96.2257 26.9883C96.7777 26.9883 97.0537 27.3363 97.0537 28.0203V29.5563V29.5683Z" fill="#0D3464"/>
<path d="M99.8748 29.258V30.734H99.2148V27.062H99.8748V27.458C100.067 27.158 100.343 27.002 100.691 27.002C101.039 27.002 101.255 27.11 101.435 27.338C101.615 27.554 101.711 27.866 101.711 28.25C101.711 28.634 101.603 29.006 101.399 29.258C101.195 29.51 100.919 29.642 100.583 29.642C100.247 29.642 100.043 29.522 99.8748 29.27V29.258ZM99.8628 28.478C99.8628 28.658 99.9108 28.814 100.019 28.934C100.127 29.054 100.259 29.114 100.415 29.114C100.571 29.114 100.763 29.042 100.871 28.886C100.979 28.73 101.039 28.526 101.039 28.25C101.039 27.758 100.847 27.518 100.463 27.518C100.079 27.518 100.139 27.59 100.031 27.722C99.9228 27.854 99.8628 28.034 99.8628 28.238V28.49V28.478Z" fill="#0D3464"/>
<path d="M102.141 29.5696V25.8496H102.801V29.5696H102.141Z" fill="#0D3464"/>
<path d="M103.451 27.218C103.559 27.158 103.703 27.098 103.883 27.062C104.063 27.026 104.219 27.002 104.363 27.002C105.035 27.002 105.371 27.35 105.371 28.034V29.57H104.747V29.198C104.579 29.486 104.327 29.63 104.003 29.63C103.679 29.63 103.571 29.558 103.427 29.426C103.283 29.294 103.211 29.102 103.211 28.874C103.211 28.394 103.499 28.118 104.063 28.034L104.759 27.938C104.759 27.614 104.603 27.458 104.291 27.458C103.979 27.458 103.715 27.554 103.463 27.734V27.206L103.451 27.218ZM104.255 28.418C103.967 28.454 103.823 28.586 103.823 28.802C103.823 29.018 103.859 28.982 103.919 29.042C103.979 29.102 104.075 29.138 104.195 29.138C104.315 29.138 104.483 29.078 104.591 28.97C104.699 28.862 104.747 28.718 104.747 28.55V28.358L104.255 28.418Z" fill="#0D3464"/>
<path d="M107.324 29.5447C107.216 29.6047 107.06 29.6287 106.856 29.6287C106.34 29.6287 106.088 29.3527 106.088 28.8127V27.5647H105.68V27.0607H106.088V26.4967L106.748 26.3047V27.0607H107.324V27.5647H106.748V28.6927C106.748 28.9687 106.856 29.1127 107.072 29.1127C107.288 29.1127 107.24 29.0887 107.324 29.0407V29.5447Z" fill="#0D3464"/>
<path d="M109.197 26.3651C109.101 26.3291 109.017 26.3051 108.921 26.3051C108.669 26.3051 108.537 26.4491 108.537 26.7491V27.0491H109.113V27.5531H108.537V29.5571H107.877V27.5531H107.457V27.0491H107.877V26.7131C107.877 26.4251 107.961 26.2091 108.141 26.0411C108.321 25.8731 108.549 25.7891 108.837 25.7891C109.125 25.7891 109.101 25.8011 109.197 25.8371V26.3651Z" fill="#0D3464"/>
<path d="M109.246 28.3203C109.246 27.9123 109.366 27.5883 109.606 27.3483C109.846 27.1083 110.17 26.9883 110.578 26.9883C110.986 26.9883 111.286 27.1083 111.514 27.3363C111.742 27.5643 111.862 27.8883 111.862 28.2723C111.862 28.6563 111.742 29.0043 111.502 29.2563C111.262 29.5083 110.938 29.6283 110.542 29.6283C110.146 29.6283 109.834 29.5083 109.594 29.2803C109.366 29.0403 109.246 28.7283 109.246 28.3323V28.3203ZM109.918 28.3203C109.918 28.8483 110.134 29.1123 110.566 29.1123C110.998 29.1123 111.19 28.8363 111.19 28.2963C111.19 27.7563 110.974 27.5163 110.554 27.5163C110.134 27.5163 110.194 27.5883 110.074 27.7323C109.966 27.8763 109.906 28.0683 109.906 28.3203H109.918Z" fill="#0D3464"/>
<path d="M113.84 27.674C113.756 27.626 113.648 27.59 113.516 27.59C113.384 27.59 113.216 27.662 113.12 27.794C113.024 27.926 112.976 28.118 112.976 28.346V29.57H112.316V27.05H112.976V27.53C113.096 27.182 113.312 27.002 113.636 27.002C113.96 27.002 113.792 27.002 113.84 27.038V27.662V27.674Z" fill="#0D3464"/>
<path d="M117.957 29.5683H117.297V28.1283C117.297 27.7203 117.153 27.5043 116.853 27.5043C116.553 27.5043 116.601 27.5643 116.505 27.6963C116.409 27.8163 116.361 27.9723 116.361 28.1523V29.5683H115.701V28.1043C115.701 27.7083 115.557 27.5163 115.257 27.5163C114.957 27.5163 115.005 27.5763 114.909 27.6963C114.813 27.8163 114.777 27.9723 114.777 28.1643V29.5683H114.117V27.0483H114.777V27.4443C114.969 27.1443 115.233 26.9883 115.581 26.9883C115.929 26.9883 116.169 27.1443 116.301 27.4683C116.493 27.1443 116.769 26.9883 117.129 26.9883C117.669 26.9883 117.945 27.3243 117.945 28.0083V29.5683H117.957Z" fill="#0D3464"/>
</svg>
